# xmcd
# 
# Track frame offsets:
#     150
#     1849
#     21795
#     40240
#     54950
#     73438
#     96944
#     126661
#     156576
#     178139
#     198704
#     217182
#     233576
#     256223
#     271051
#     291602
#     310446
# 
# Disc length: 4414
# 
# Revision: 0
# Processed by: cddbd v1.5.2PL0 Copyright (c) Steve Scherf et al.
# Submitted via: BonkEnc v1.0.8
# 
DISCID=0c113c11
DTITLE=Lady Pank - Koncertowa
DYEAR=0
DGENRE=Blues
TTITLE0=Wstêp
TTITLE1=Zamki na piasku
TTITLE2=Kryzysowa narzeczona
TTITLE3=Vademecum Skauta
TTITLE4=Fabryka ma³p
TTITLE5=Sztuka latania
TTITLE6=Marchewkowe pole
TTITLE7=Zawsze tam gdzie ty
TTITLE8=Zostawcie Titanica
TTITLE9=Ma³a wojna
TTITLE10=Du du
TTITLE11=Mniej ni¿ zero
TTITLE12=Znowu pada deszcz
TTITLE13=Tañcz g³upia tañcz
TTITLE14=Ochyda!
TTITLE15=Rozmowa z...
TTITLE16=Do Moniki L.
EXTD=ID3G:   0
EXTT0=
EXTT1=
EXTT2=
EXTT3=
EXTT4=
EXTT5=
EXTT6=
EXTT7=
EXTT8=
EXTT9=
EXTT10=
EXTT11=
EXTT12=
EXTT13=
EXTT14=
EXTT15=
EXTT16=
PLAYORDER=
